%TF.GenerationSoftware,KiCad,Pcbnew,9.0.3*%
%TF.CreationDate,2025-11-03T17:50:36+09:00*%
%TF.ProjectId,MPMP,4d504d50-2e6b-4696-9361-645f70636258,rev?*%
%TF.SameCoordinates,Original*%
%TF.FileFunction,Soldermask,Top*%
%TF.FilePolarity,Negative*%
%FSLAX46Y46*%
G04 Gerber Fmt 4.6, Leading zero omitted, Abs format (unit mm)*
G04 Created by KiCad (PCBNEW 9.0.3) date 2025-11-03 17:50:36*
%MOMM*%
%LPD*%
G01*
G04 APERTURE LIST*
G04 Aperture macros list*
%AMRoundRect*
0 Rectangle with rounded corners*
0 $1 Rounding radius*
0 $2 $3 $4 $5 $6 $7 $8 $9 X,Y pos of 4 corners*
0 Add a 4 corners polygon primitive as box body*
4,1,4,$2,$3,$4,$5,$6,$7,$8,$9,$2,$3,0*
0 Add four circle primitives for the rounded corners*
1,1,$1+$1,$2,$3*
1,1,$1+$1,$4,$5*
1,1,$1+$1,$6,$7*
1,1,$1+$1,$8,$9*
0 Add four rect primitives between the rounded corners*
20,1,$1+$1,$2,$3,$4,$5,0*
20,1,$1+$1,$4,$5,$6,$7,0*
20,1,$1+$1,$6,$7,$8,$9,0*
20,1,$1+$1,$8,$9,$2,$3,0*%
G04 Aperture macros list end*
%ADD10C,1.400000*%
%ADD11RoundRect,0.250000X0.475000X-0.250000X0.475000X0.250000X-0.475000X0.250000X-0.475000X-0.250000X0*%
%ADD12RoundRect,0.250000X0.550000X-0.550000X0.550000X0.550000X-0.550000X0.550000X-0.550000X-0.550000X0*%
%ADD13C,1.600000*%
%ADD14C,3.000000*%
%ADD15RoundRect,0.250000X0.250000X0.475000X-0.250000X0.475000X-0.250000X-0.475000X0.250000X-0.475000X0*%
%ADD16RoundRect,0.250000X-0.475000X0.250000X-0.475000X-0.250000X0.475000X-0.250000X0.475000X0.250000X0*%
%ADD17R,1.600000X1.600000*%
%ADD18RoundRect,0.137500X-0.600000X-0.137500X0.600000X-0.137500X0.600000X0.137500X-0.600000X0.137500X0*%
%ADD19RoundRect,0.137500X-0.137500X-0.600000X0.137500X-0.600000X0.137500X0.600000X-0.137500X0.600000X0*%
%ADD20RoundRect,0.250000X-0.450000X0.262500X-0.450000X-0.262500X0.450000X-0.262500X0.450000X0.262500X0*%
%ADD21C,1.500000*%
%ADD22R,1.700000X1.700000*%
%ADD23C,1.700000*%
%ADD24R,2.250000X2.250000*%
%ADD25C,2.250000*%
%ADD26RoundRect,0.250000X-0.650000X-0.650000X0.650000X-0.650000X0.650000X0.650000X-0.650000X0.650000X0*%
%ADD27C,1.800000*%
G04 APERTURE END LIST*
D10*
%TO.C,J/B6*%
X137000000Y-96750000D03*
%TD*%
%TO.C,J/R7*%
X142250000Y-94500000D03*
%TD*%
D11*
%TO.C,C2*%
X171700000Y-113400000D03*
X171700000Y-111500000D03*
%TD*%
D12*
%TO.C,U/R2*%
X150610000Y-70310000D03*
D13*
X153150000Y-70310000D03*
X155690000Y-70310000D03*
X158230000Y-70310000D03*
X160770000Y-70310000D03*
X163310000Y-70310000D03*
X165850000Y-70310000D03*
X168390000Y-70310000D03*
X168390000Y-62690000D03*
X165850000Y-62690000D03*
X163310000Y-62690000D03*
X160770000Y-62690000D03*
X158230000Y-62690000D03*
X155690000Y-62690000D03*
X153150000Y-62690000D03*
X150610000Y-62690000D03*
%TD*%
D10*
%TO.C,J/R15*%
X142250000Y-114000000D03*
%TD*%
D14*
%TO.C,H1*%
X198790000Y-58780000D03*
%TD*%
D10*
%TO.C,J/B12*%
X153000000Y-106750000D03*
%TD*%
%TO.C,J/R9*%
X126000000Y-104250000D03*
%TD*%
%TO.C,15*%
X142250000Y-116500000D03*
%TD*%
%TO.C,J/V6*%
X134250000Y-96750000D03*
%TD*%
D15*
%TO.C,C9*%
X169450000Y-121750000D03*
X167550000Y-121750000D03*
%TD*%
D10*
%TO.C,J/G16*%
X153000000Y-114000000D03*
%TD*%
%TO.C,R1*%
X126000000Y-83000000D03*
%TD*%
D16*
%TO.C,C/R1*%
X121500000Y-62750000D03*
X121500000Y-64650000D03*
%TD*%
D17*
%TO.C,RN1*%
X114400000Y-72440000D03*
D13*
X114400000Y-74980000D03*
X114400000Y-77520000D03*
X114400000Y-80060000D03*
X114400000Y-82600000D03*
X114400000Y-85140000D03*
X114400000Y-87680000D03*
X114400000Y-90220000D03*
X114400000Y-92760000D03*
%TD*%
D10*
%TO.C,11*%
X142250000Y-104250000D03*
%TD*%
%TO.C,2*%
X137000000Y-83000000D03*
%TD*%
%TO.C,10*%
X137000000Y-106750000D03*
%TD*%
%TO.C,9*%
X128750000Y-104250000D03*
%TD*%
%TO.C,J/B3*%
X145000000Y-85500000D03*
%TD*%
D16*
%TO.C,C/G2*%
X174250000Y-130500000D03*
X174250000Y-132400000D03*
%TD*%
D18*
%TO.C,U1*%
X167236500Y-87773500D03*
X167236500Y-88573500D03*
X167236500Y-89373500D03*
X167236500Y-90173500D03*
X167236500Y-90973500D03*
X167236500Y-91773500D03*
X167236500Y-92573500D03*
X167236500Y-93373500D03*
X167236500Y-94173500D03*
X167236500Y-94973500D03*
X167236500Y-95773500D03*
X167236500Y-96573500D03*
X167236500Y-97373500D03*
X167236500Y-98173500D03*
X167236500Y-98973500D03*
X167236500Y-99773500D03*
D19*
X168899000Y-101436000D03*
X169699000Y-101436000D03*
X170499000Y-101436000D03*
X171299000Y-101436000D03*
X172099000Y-101436000D03*
X172899000Y-101436000D03*
X173699000Y-101436000D03*
X174499000Y-101436000D03*
X175299000Y-101436000D03*
X176099000Y-101436000D03*
X176899000Y-101436000D03*
X177699000Y-101436000D03*
X178499000Y-101436000D03*
X179299000Y-101436000D03*
X180099000Y-101436000D03*
X180899000Y-101436000D03*
D18*
X182561500Y-99773500D03*
X182561500Y-98973500D03*
X182561500Y-98173500D03*
X182561500Y-97373500D03*
X182561500Y-96573500D03*
X182561500Y-95773500D03*
X182561500Y-94973500D03*
X182561500Y-94173500D03*
X182561500Y-93373500D03*
X182561500Y-92573500D03*
X182561500Y-91773500D03*
X182561500Y-90973500D03*
X182561500Y-90173500D03*
X182561500Y-89373500D03*
X182561500Y-88573500D03*
X182561500Y-87773500D03*
D19*
X180899000Y-86111000D03*
X180099000Y-86111000D03*
X179299000Y-86111000D03*
X178499000Y-86111000D03*
X177699000Y-86111000D03*
X176899000Y-86111000D03*
X176099000Y-86111000D03*
X175299000Y-86111000D03*
X174499000Y-86111000D03*
X173699000Y-86111000D03*
X172899000Y-86111000D03*
X172099000Y-86111000D03*
X171299000Y-86111000D03*
X170499000Y-86111000D03*
X169699000Y-86111000D03*
X168899000Y-86111000D03*
%TD*%
D10*
%TO.C,J/B15*%
X145000000Y-116500000D03*
%TD*%
%TO.C,12*%
X150250000Y-106750000D03*
%TD*%
D20*
%TO.C,R1*%
X166599000Y-117448500D03*
X166599000Y-119273500D03*
%TD*%
D10*
%TO.C,J/G12*%
X153000000Y-104250000D03*
%TD*%
D12*
%TO.C,U/R1*%
X124420000Y-70250000D03*
D13*
X126960000Y-70250000D03*
X129500000Y-70250000D03*
X132040000Y-70250000D03*
X134580000Y-70250000D03*
X137120000Y-70250000D03*
X139660000Y-70250000D03*
X142200000Y-70250000D03*
X142200000Y-62630000D03*
X139660000Y-62630000D03*
X137120000Y-62630000D03*
X134580000Y-62630000D03*
X132040000Y-62630000D03*
X129500000Y-62630000D03*
X126960000Y-62630000D03*
X124420000Y-62630000D03*
%TD*%
D12*
%TO.C,U/B1*%
X117860000Y-136810000D03*
D13*
X120400000Y-136810000D03*
X122940000Y-136810000D03*
X125480000Y-136810000D03*
X128020000Y-136810000D03*
X130560000Y-136810000D03*
X133100000Y-136810000D03*
X135640000Y-136810000D03*
X135640000Y-129190000D03*
X133100000Y-129190000D03*
X130560000Y-129190000D03*
X128020000Y-129190000D03*
X125480000Y-129190000D03*
X122940000Y-129190000D03*
X120400000Y-129190000D03*
X117860000Y-129190000D03*
%TD*%
D10*
%TO.C,J/V4*%
X150250000Y-85500000D03*
%TD*%
%TO.C,6*%
X137000000Y-94250000D03*
%TD*%
%TO.C,3*%
X145000000Y-83000000D03*
%TD*%
%TO.C,J/G15*%
X145000000Y-114000000D03*
%TD*%
%TO.C,J/R14*%
X134250000Y-114000000D03*
%TD*%
D17*
%TO.C,RN2*%
X114400000Y-103840000D03*
D13*
X114400000Y-106380000D03*
X114400000Y-108920000D03*
X114400000Y-111460000D03*
X114400000Y-114000000D03*
X114400000Y-116540000D03*
X114400000Y-119080000D03*
X114400000Y-121620000D03*
X114400000Y-124160000D03*
%TD*%
D10*
%TO.C,4*%
X153000000Y-83000000D03*
%TD*%
%TO.C,13*%
X128750000Y-114000000D03*
%TD*%
%TO.C,B1*%
X128750000Y-85500000D03*
%TD*%
%TO.C,J/B8*%
X153000000Y-97000000D03*
%TD*%
D16*
%TO.C,C/B1*%
X115000000Y-129250000D03*
X115000000Y-131150000D03*
%TD*%
%TO.C,C4*%
X170600000Y-81050000D03*
X170600000Y-82950000D03*
%TD*%
D10*
%TO.C,J/B4*%
X153000000Y-85500000D03*
%TD*%
%TO.C,J/B7*%
X145000000Y-97000000D03*
%TD*%
%TO.C,J/R2*%
X134250000Y-83000000D03*
%TD*%
%TO.C,G1*%
X128750000Y-83000000D03*
%TD*%
%TO.C,J/R8*%
X150250000Y-94500000D03*
%TD*%
%TO.C,16*%
X150250000Y-116500000D03*
%TD*%
%TO.C,7*%
X145000000Y-94500000D03*
%TD*%
D16*
%TO.C,C/G1*%
X173250000Y-62750000D03*
X173250000Y-64650000D03*
%TD*%
D10*
%TO.C,V1*%
X126000000Y-85500000D03*
%TD*%
D21*
%TO.C,Y1*%
X171660000Y-105500000D03*
X176540000Y-105500000D03*
%TD*%
D10*
%TO.C,J/V9*%
X126000000Y-106750000D03*
%TD*%
D15*
%TO.C,C5*%
X185950000Y-84800000D03*
X184050000Y-84800000D03*
%TD*%
D10*
%TO.C,J/B16*%
X153000000Y-116500000D03*
%TD*%
%TO.C,J/V7*%
X142250000Y-97000000D03*
%TD*%
%TO.C,J/V5*%
X126000000Y-96750000D03*
%TD*%
%TO.C,J/B5*%
X128750000Y-96750000D03*
%TD*%
%TO.C,14*%
X137000000Y-116500000D03*
%TD*%
%TO.C,J/R5*%
X126000000Y-94250000D03*
%TD*%
%TO.C,J/B9*%
X128750000Y-106750000D03*
%TD*%
D12*
%TO.C,U/B2*%
X144220000Y-137120000D03*
D13*
X146760000Y-137120000D03*
X149300000Y-137120000D03*
X151840000Y-137120000D03*
X154380000Y-137120000D03*
X156920000Y-137120000D03*
X159460000Y-137120000D03*
X162000000Y-137120000D03*
X162000000Y-129500000D03*
X159460000Y-129500000D03*
X156920000Y-129500000D03*
X154380000Y-129500000D03*
X151840000Y-129500000D03*
X149300000Y-129500000D03*
X146760000Y-129500000D03*
X144220000Y-129500000D03*
%TD*%
D10*
%TO.C,J/B13*%
X128750000Y-116500000D03*
%TD*%
%TO.C,5*%
X128750000Y-94250000D03*
%TD*%
D14*
%TO.C,H2*%
X113410000Y-58760000D03*
%TD*%
D22*
%TO.C,J1*%
X191000000Y-106500000D03*
D23*
X191000000Y-109040000D03*
X191000000Y-111580000D03*
X191000000Y-114120000D03*
%TD*%
D10*
%TO.C,J/R10*%
X134250000Y-104250000D03*
%TD*%
%TO.C,J/R6*%
X134250000Y-94250000D03*
%TD*%
D24*
%TO.C,SW1*%
X183750000Y-115000000D03*
D25*
X183750000Y-121500000D03*
%TD*%
D10*
%TO.C,J/R16*%
X150250000Y-114000000D03*
%TD*%
%TO.C,J/G14*%
X137000000Y-114000000D03*
%TD*%
D16*
%TO.C,C/R2*%
X147900000Y-62650000D03*
X147900000Y-64550000D03*
%TD*%
D10*
%TO.C,J/G10*%
X137000000Y-104250000D03*
%TD*%
%TO.C,J/V8*%
X150250000Y-97000000D03*
%TD*%
%TO.C,J/V11*%
X142250000Y-106750000D03*
%TD*%
%TO.C,J/V10*%
X134250000Y-106750000D03*
%TD*%
%TO.C,J/G11*%
X145000000Y-104250000D03*
%TD*%
D11*
%TO.C,C1*%
X176600000Y-113450000D03*
X176600000Y-111550000D03*
%TD*%
D26*
%TO.C,D1*%
X172039000Y-118111000D03*
D27*
X179659000Y-118111000D03*
%TD*%
D14*
%TO.C,H4*%
X198790000Y-140730000D03*
%TD*%
D10*
%TO.C,8*%
X153000000Y-94500000D03*
%TD*%
D12*
%TO.C,U/G1*%
X175960000Y-70310000D03*
D13*
X178500000Y-70310000D03*
X181040000Y-70310000D03*
X183580000Y-70310000D03*
X186120000Y-70310000D03*
X188660000Y-70310000D03*
X191200000Y-70310000D03*
X193740000Y-70310000D03*
X193740000Y-62690000D03*
X191200000Y-62690000D03*
X188660000Y-62690000D03*
X186120000Y-62690000D03*
X183580000Y-62690000D03*
X181040000Y-62690000D03*
X178500000Y-62690000D03*
X175960000Y-62690000D03*
%TD*%
D12*
%TO.C,U/G2*%
X177150000Y-136870000D03*
D13*
X179690000Y-136870000D03*
X182230000Y-136870000D03*
X184770000Y-136870000D03*
X187310000Y-136870000D03*
X189850000Y-136870000D03*
X192390000Y-136870000D03*
X194930000Y-136870000D03*
X194930000Y-129250000D03*
X192390000Y-129250000D03*
X189850000Y-129250000D03*
X187310000Y-129250000D03*
X184770000Y-129250000D03*
X182230000Y-129250000D03*
X179690000Y-129250000D03*
X177150000Y-129250000D03*
%TD*%
D10*
%TO.C,J/R13*%
X126000000Y-114000000D03*
%TD*%
%TO.C,J/V2*%
X134250000Y-85500000D03*
%TD*%
D14*
%TO.C,H3*%
X113300000Y-140730000D03*
%TD*%
D10*
%TO.C,J/V3*%
X142250000Y-85500000D03*
%TD*%
%TO.C,J/R12*%
X150250000Y-104250000D03*
%TD*%
%TO.C,J/R4*%
X150250000Y-83000000D03*
%TD*%
D16*
%TO.C,C/B2*%
X141500000Y-129500000D03*
X141500000Y-131400000D03*
%TD*%
D10*
%TO.C,J/B2*%
X137000000Y-85500000D03*
%TD*%
%TO.C,J/V13*%
X126000000Y-116500000D03*
%TD*%
D22*
%TO.C,J2*%
X182380000Y-80000000D03*
D23*
X182380000Y-77460000D03*
X184920000Y-80000000D03*
X184920000Y-77460000D03*
X187460000Y-80000000D03*
X187460000Y-77460000D03*
X190000000Y-80000000D03*
X190000000Y-77460000D03*
X192540000Y-80000000D03*
X192540000Y-77460000D03*
%TD*%
D10*
%TO.C,J/B11*%
X145000000Y-106750000D03*
%TD*%
%TO.C,J/V14*%
X134250000Y-116500000D03*
%TD*%
%TO.C,J/R3*%
X142250000Y-83000000D03*
%TD*%
M02*
