%TF.GenerationSoftware,KiCad,Pcbnew,9.0.3*%
%TF.CreationDate,2025-11-03T17:50:36+09:00*%
%TF.ProjectId,MPMP,4d504d50-2e6b-4696-9361-645f70636258,rev?*%
%TF.SameCoordinates,Original*%
%TF.FileFunction,Paste,Top*%
%TF.FilePolarity,Positive*%
%FSLAX46Y46*%
G04 Gerber Fmt 4.6, Leading zero omitted, Abs format (unit mm)*
G04 Created by KiCad (PCBNEW 9.0.3) date 2025-11-03 17:50:36*
%MOMM*%
%LPD*%
G01*
G04 APERTURE LIST*
G04 Aperture macros list*
%AMRoundRect*
0 Rectangle with rounded corners*
0 $1 Rounding radius*
0 $2 $3 $4 $5 $6 $7 $8 $9 X,Y pos of 4 corners*
0 Add a 4 corners polygon primitive as box body*
4,1,4,$2,$3,$4,$5,$6,$7,$8,$9,$2,$3,0*
0 Add four circle primitives for the rounded corners*
1,1,$1+$1,$2,$3*
1,1,$1+$1,$4,$5*
1,1,$1+$1,$6,$7*
1,1,$1+$1,$8,$9*
0 Add four rect primitives between the rounded corners*
20,1,$1+$1,$2,$3,$4,$5,0*
20,1,$1+$1,$4,$5,$6,$7,0*
20,1,$1+$1,$6,$7,$8,$9,0*
20,1,$1+$1,$8,$9,$2,$3,0*%
G04 Aperture macros list end*
%ADD10RoundRect,0.250000X0.475000X-0.250000X0.475000X0.250000X-0.475000X0.250000X-0.475000X-0.250000X0*%
%ADD11RoundRect,0.250000X0.250000X0.475000X-0.250000X0.475000X-0.250000X-0.475000X0.250000X-0.475000X0*%
%ADD12RoundRect,0.250000X-0.475000X0.250000X-0.475000X-0.250000X0.475000X-0.250000X0.475000X0.250000X0*%
%ADD13RoundRect,0.137500X-0.600000X-0.137500X0.600000X-0.137500X0.600000X0.137500X-0.600000X0.137500X0*%
%ADD14RoundRect,0.137500X-0.137500X-0.600000X0.137500X-0.600000X0.137500X0.600000X-0.137500X0.600000X0*%
%ADD15RoundRect,0.250000X-0.450000X0.262500X-0.450000X-0.262500X0.450000X-0.262500X0.450000X0.262500X0*%
G04 APERTURE END LIST*
D10*
%TO.C,C2*%
X171700000Y-113400000D03*
X171700000Y-111500000D03*
%TD*%
D11*
%TO.C,C9*%
X169450000Y-121750000D03*
X167550000Y-121750000D03*
%TD*%
D12*
%TO.C,C/R1*%
X121500000Y-62750000D03*
X121500000Y-64650000D03*
%TD*%
%TO.C,C/G2*%
X174250000Y-130500000D03*
X174250000Y-132400000D03*
%TD*%
D13*
%TO.C,U1*%
X167236500Y-87773500D03*
X167236500Y-88573500D03*
X167236500Y-89373500D03*
X167236500Y-90173500D03*
X167236500Y-90973500D03*
X167236500Y-91773500D03*
X167236500Y-92573500D03*
X167236500Y-93373500D03*
X167236500Y-94173500D03*
X167236500Y-94973500D03*
X167236500Y-95773500D03*
X167236500Y-96573500D03*
X167236500Y-97373500D03*
X167236500Y-98173500D03*
X167236500Y-98973500D03*
X167236500Y-99773500D03*
D14*
X168899000Y-101436000D03*
X169699000Y-101436000D03*
X170499000Y-101436000D03*
X171299000Y-101436000D03*
X172099000Y-101436000D03*
X172899000Y-101436000D03*
X173699000Y-101436000D03*
X174499000Y-101436000D03*
X175299000Y-101436000D03*
X176099000Y-101436000D03*
X176899000Y-101436000D03*
X177699000Y-101436000D03*
X178499000Y-101436000D03*
X179299000Y-101436000D03*
X180099000Y-101436000D03*
X180899000Y-101436000D03*
D13*
X182561500Y-99773500D03*
X182561500Y-98973500D03*
X182561500Y-98173500D03*
X182561500Y-97373500D03*
X182561500Y-96573500D03*
X182561500Y-95773500D03*
X182561500Y-94973500D03*
X182561500Y-94173500D03*
X182561500Y-93373500D03*
X182561500Y-92573500D03*
X182561500Y-91773500D03*
X182561500Y-90973500D03*
X182561500Y-90173500D03*
X182561500Y-89373500D03*
X182561500Y-88573500D03*
X182561500Y-87773500D03*
D14*
X180899000Y-86111000D03*
X180099000Y-86111000D03*
X179299000Y-86111000D03*
X178499000Y-86111000D03*
X177699000Y-86111000D03*
X176899000Y-86111000D03*
X176099000Y-86111000D03*
X175299000Y-86111000D03*
X174499000Y-86111000D03*
X173699000Y-86111000D03*
X172899000Y-86111000D03*
X172099000Y-86111000D03*
X171299000Y-86111000D03*
X170499000Y-86111000D03*
X169699000Y-86111000D03*
X168899000Y-86111000D03*
%TD*%
D15*
%TO.C,R1*%
X166599000Y-117448500D03*
X166599000Y-119273500D03*
%TD*%
D12*
%TO.C,C/B1*%
X115000000Y-129250000D03*
X115000000Y-131150000D03*
%TD*%
%TO.C,C4*%
X170600000Y-81050000D03*
X170600000Y-82950000D03*
%TD*%
%TO.C,C/G1*%
X173250000Y-62750000D03*
X173250000Y-64650000D03*
%TD*%
D11*
%TO.C,C5*%
X185950000Y-84800000D03*
X184050000Y-84800000D03*
%TD*%
D12*
%TO.C,C/R2*%
X147900000Y-62650000D03*
X147900000Y-64550000D03*
%TD*%
D10*
%TO.C,C1*%
X176600000Y-113450000D03*
X176600000Y-111550000D03*
%TD*%
D12*
%TO.C,C/B2*%
X141500000Y-129500000D03*
X141500000Y-131400000D03*
%TD*%
M02*
