M48
; DRILL file {KiCad 9.0.3} date 2025-11-03T17:50:35+0900
; FORMAT={-:-/ absolute / metric / decimal}
; #@! TF.CreationDate,2025-11-03T17:50:35+09:00
; #@! TF.GenerationSoftware,Kicad,Pcbnew,9.0.3
; #@! TF.FileFunction,Plated,1,2,PTH
FMAT,2
METRIC
; #@! TA.AperFunction,Plated,PTH,ViaDrill
T1C0.300
; #@! TA.AperFunction,Plated,PTH,ComponentDrill
T2C0.700
; #@! TA.AperFunction,Plated,PTH,ComponentDrill
T3C0.800
; #@! TA.AperFunction,Plated,PTH,ComponentDrill
T4C0.900
; #@! TA.AperFunction,Plated,PTH,ComponentDrill
T5C1.000
; #@! TA.AperFunction,Plated,PTH,ComponentDrill
T6C1.300
%
G90
G05
T1
X114.375Y-132.875
X120.75Y-66.75
X124.8Y-131.8
X132.725Y-64.475
X136.2Y-139.2
X140.875Y-133.25
X142.2Y-72.45
X147.25Y-66.65
X151.2Y-132.0
X158.0Y-82.25
X158.825Y-64.825
X162.25Y-131.25
X164.12Y-137.12
X166.0Y-121.4
X167.25Y-67.75
X168.8Y-110.6
X170.8Y-84.6
X171.0Y-96.4
X171.7Y-115.139
X172.099Y-99.8
X172.25Y-128.75
X172.775Y-66.275
X172.8Y-80.6
X173.25Y-69.5
X174.2Y-99.6
X174.25Y-134.25
X176.2Y-89.6
X176.6Y-84.6
X176.6Y-115.189
X179.25Y-80.0
X179.79Y-91.5
X182.95Y-64.6
X183.0Y-123.75
X184.975Y-125.775
X185.97Y-97.2
X186.325Y-115.725
X186.8Y-86.55
X191.75Y-123.75
X193.0Y-72.4
X194.0Y-139.0
X195.0Y-89.2
T2
X126.0Y-83.0
X126.0Y-85.5
X126.0Y-94.25
X126.0Y-96.75
X126.0Y-104.25
X126.0Y-106.75
X126.0Y-114.0
X126.0Y-116.5
X128.75Y-83.0
X128.75Y-85.5
X128.75Y-94.25
X128.75Y-96.75
X128.75Y-104.25
X128.75Y-106.75
X128.75Y-114.0
X128.75Y-116.5
X134.25Y-83.0
X134.25Y-85.5
X134.25Y-94.25
X134.25Y-96.75
X134.25Y-104.25
X134.25Y-106.75
X134.25Y-114.0
X134.25Y-116.5
X137.0Y-83.0
X137.0Y-85.5
X137.0Y-94.25
X137.0Y-96.75
X137.0Y-104.25
X137.0Y-106.75
X137.0Y-114.0
X137.0Y-116.5
X142.25Y-83.0
X142.25Y-85.5
X142.25Y-94.5
X142.25Y-97.0
X142.25Y-104.25
X142.25Y-106.75
X142.25Y-114.0
X142.25Y-116.5
X145.0Y-83.0
X145.0Y-85.5
X145.0Y-94.5
X145.0Y-97.0
X145.0Y-104.25
X145.0Y-106.75
X145.0Y-114.0
X145.0Y-116.5
X150.25Y-83.0
X150.25Y-85.5
X150.25Y-94.5
X150.25Y-97.0
X150.25Y-104.25
X150.25Y-106.75
X150.25Y-114.0
X150.25Y-116.5
X153.0Y-83.0
X153.0Y-85.5
X153.0Y-94.5
X153.0Y-97.0
X153.0Y-104.25
X153.0Y-106.75
X153.0Y-114.0
X153.0Y-116.5
T3
X114.4Y-72.44
X114.4Y-74.98
X114.4Y-77.52
X114.4Y-80.06
X114.4Y-82.6
X114.4Y-85.14
X114.4Y-87.68
X114.4Y-90.22
X114.4Y-92.76
X114.4Y-103.84
X114.4Y-106.38
X114.4Y-108.92
X114.4Y-111.46
X114.4Y-114.0
X114.4Y-116.54
X114.4Y-119.08
X114.4Y-121.62
X114.4Y-124.16
X117.86Y-129.19
X117.86Y-136.81
X120.4Y-129.19
X120.4Y-136.81
X122.94Y-129.19
X122.94Y-136.81
X124.42Y-62.63
X124.42Y-70.25
X125.48Y-129.19
X125.48Y-136.81
X126.96Y-62.63
X126.96Y-70.25
X128.02Y-129.19
X128.02Y-136.81
X129.5Y-62.63
X129.5Y-70.25
X130.56Y-129.19
X130.56Y-136.81
X132.04Y-62.63
X132.04Y-70.25
X133.1Y-129.19
X133.1Y-136.81
X134.58Y-62.63
X134.58Y-70.25
X135.64Y-129.19
X135.64Y-136.81
X137.12Y-62.63
X137.12Y-70.25
X139.66Y-62.63
X139.66Y-70.25
X142.2Y-62.63
X142.2Y-70.25
X144.22Y-129.5
X144.22Y-137.12
X146.76Y-129.5
X146.76Y-137.12
X149.3Y-129.5
X149.3Y-137.12
X150.61Y-62.69
X150.61Y-70.31
X151.84Y-129.5
X151.84Y-137.12
X153.15Y-62.69
X153.15Y-70.31
X154.38Y-129.5
X154.38Y-137.12
X155.69Y-62.69
X155.69Y-70.31
X156.92Y-129.5
X156.92Y-137.12
X158.23Y-62.69
X158.23Y-70.31
X159.46Y-129.5
X159.46Y-137.12
X160.77Y-62.69
X160.77Y-70.31
X162.0Y-129.5
X162.0Y-137.12
X163.31Y-62.69
X163.31Y-70.31
X165.85Y-62.69
X165.85Y-70.31
X168.39Y-62.69
X168.39Y-70.31
X171.66Y-105.5
X175.96Y-62.69
X175.96Y-70.31
X176.54Y-105.5
X177.15Y-129.25
X177.15Y-136.87
X178.5Y-62.69
X178.5Y-70.31
X179.69Y-129.25
X179.69Y-136.87
X181.04Y-62.69
X181.04Y-70.31
X182.23Y-129.25
X182.23Y-136.87
X183.58Y-62.69
X183.58Y-70.31
X184.77Y-129.25
X184.77Y-136.87
X186.12Y-62.69
X186.12Y-70.31
X187.31Y-129.25
X187.31Y-136.87
X188.66Y-62.69
X188.66Y-70.31
X189.85Y-129.25
X189.85Y-136.87
X191.2Y-62.69
X191.2Y-70.31
X192.39Y-129.25
X192.39Y-136.87
X193.74Y-62.69
X193.74Y-70.31
X194.93Y-129.25
X194.93Y-136.87
T4
X172.039Y-118.111
X179.659Y-118.111
T5
X182.38Y-77.46
X182.38Y-80.0
X184.92Y-77.46
X184.92Y-80.0
X187.46Y-77.46
X187.46Y-80.0
X190.0Y-77.46
X190.0Y-80.0
X191.0Y-106.5
X191.0Y-109.04
X191.0Y-111.58
X191.0Y-114.12
X192.54Y-77.46
X192.54Y-80.0
T6
X183.75Y-115.0
X183.75Y-121.5
M30
